<svg width="122" height="32" viewBox="0 0 122 32" fill="none" xmlns="http://www.w3.org/2000/svg">
<path d="M1.33016 17.2985C2.06479 17.2985 2.66033 16.7036 2.66033 15.9697C2.66033 15.2358 2.06479 14.6408 1.33016 14.6408C0.595535 14.6408 0 15.2358 0 15.9697C0 16.7036 0.595535 17.2985 1.33016 17.2985Z" fill="#041A55"/>
<path d="M7.31503 17.2985C8.04966 17.2985 8.64519 16.7036 8.64519 15.9697C8.64519 15.2358 8.04966 14.6408 7.31503 14.6408C6.5804 14.6408 5.98486 15.2358 5.98486 15.9697C5.98486 16.7036 6.5804 17.2985 7.31503 17.2985Z" fill="#041A55"/>
<path d="M4.86337 21.2186C5.598 21.2186 6.19353 20.6237 6.19353 19.8898C6.19353 19.1559 5.598 18.561 4.86337 18.561C4.12874 18.561 3.5332 19.1559 3.5332 19.8898C3.5332 20.6237 4.12874 21.2186 4.86337 21.2186Z" fill="#041A55"/>
<path d="M9.16781 22.9209C9.90244 22.9209 10.498 22.326 10.498 21.5921C10.498 20.8582 9.90244 20.2632 9.16781 20.2632C8.43318 20.2632 7.83765 20.8582 7.83765 21.5921C7.83765 22.326 8.43318 22.9209 9.16781 22.9209Z" fill="#041A55"/>
<path d="M9.43173 27.5614C10.1664 27.5614 10.7619 26.9665 10.7619 26.2326C10.7619 25.4987 10.1664 24.9037 9.43173 24.9037C8.6971 24.9037 8.10156 25.4987 8.10156 26.2326C8.10156 26.9665 8.6971 27.5614 9.43173 27.5614Z" fill="#041A55"/>
<path d="M4.86337 13.3736C5.598 13.3736 6.19353 12.7787 6.19353 12.0448C6.19353 11.3109 5.598 10.7159 4.86337 10.7159C4.12874 10.7159 3.5332 11.3109 3.5332 12.0448C3.5332 12.7787 4.12874 13.3736 4.86337 13.3736Z" fill="#041A55"/>
<path d="M4.32064 8.22416C5.05527 8.22416 5.65081 7.62922 5.65081 6.89533C5.65081 6.16144 5.05527 5.5665 4.32064 5.5665C3.58601 5.5665 2.99048 6.16144 2.99048 6.89533C2.99048 7.62922 3.58601 8.22416 4.32064 8.22416Z" fill="#041A55"/>
<path d="M9.16781 11.6363C9.90244 11.6363 10.498 11.0413 10.498 10.3074C10.498 9.57354 9.90244 8.97861 9.16781 8.97861C8.43318 8.97861 7.83765 9.57354 7.83765 10.3074C7.83765 11.0413 8.43318 11.6363 9.16781 11.6363Z" fill="#041A55"/>
<path d="M9.33969 7.17588C10.0743 7.17588 10.6698 6.58094 10.6698 5.84705C10.6698 5.11316 10.0743 4.51822 9.33969 4.51822C8.60506 4.51822 8.00952 5.11316 8.00952 5.84705C8.00952 6.58094 8.60506 7.17588 9.33969 7.17588Z" fill="#041A55"/>
<path d="M13.8453 8.22416C14.5799 8.22416 15.1755 7.62922 15.1755 6.89533C15.1755 6.16144 14.5799 5.5665 13.8453 5.5665C13.1107 5.5665 12.5151 6.16144 12.5151 6.89533C12.5151 7.62922 13.1107 8.22416 13.8453 8.22416Z" fill="#041A55"/>
<path d="M19.6441 8.22416C20.3788 8.22416 20.9743 7.62922 20.9743 6.89533C20.9743 6.16144 20.3788 5.5665 19.6441 5.5665C18.9095 5.5665 18.314 6.16144 18.314 6.89533C18.314 7.62922 18.9095 8.22416 19.6441 8.22416Z" fill="#041A55"/>
<path d="M24.036 7.11805C24.7706 7.11805 25.3661 6.52311 25.3661 5.78922C25.3661 5.05533 24.7706 4.46039 24.036 4.46039C23.3013 4.46039 22.7058 5.05533 22.7058 5.78922C22.7058 6.52311 23.3013 7.11805 24.036 7.11805Z" fill="#041A55"/>
<path d="M24.3375 11.7273C25.0721 11.7273 25.6677 11.1323 25.6677 10.3984C25.6677 9.66455 25.0721 9.06961 24.3375 9.06961C23.6029 9.06961 23.0073 9.66455 23.0073 10.3984C23.0073 11.1323 23.6029 11.7273 24.3375 11.7273Z" fill="#041A55"/>
<path d="M28.6432 13.3736C29.3778 13.3736 29.9733 12.7787 29.9733 12.0448C29.9733 11.3109 29.3778 10.7159 28.6432 10.7159C27.9085 10.7159 27.313 11.3109 27.313 12.0448C27.313 12.7787 27.9085 13.3736 28.6432 13.3736Z" fill="#041A55"/>
<path d="M28.6432 21.2186C29.3778 21.2186 29.9733 20.6237 29.9733 19.8898C29.9733 19.1559 29.3778 18.561 28.6432 18.561C27.9085 18.561 27.313 19.1559 27.313 19.8898C27.313 20.6237 27.9085 21.2186 28.6432 21.2186Z" fill="#041A55"/>
<path d="M24.3375 22.9332C25.0721 22.9332 25.6677 22.3383 25.6677 21.6044C25.6677 20.8705 25.0721 20.2756 24.3375 20.2756C23.6029 20.2756 23.0073 20.8705 23.0073 21.6044C23.0073 22.3383 23.6029 22.9332 24.3375 22.9332Z" fill="#041A55"/>
<path d="M29.2352 26.371C29.9698 26.371 30.5654 25.776 30.5654 25.0421C30.5654 24.3082 29.9698 23.7133 29.2352 23.7133C28.5006 23.7133 27.905 24.3082 27.905 25.0421C27.905 25.776 28.5006 26.371 29.2352 26.371Z" fill="#041A55"/>
<path d="M19.6441 26.371C20.3788 26.371 20.9743 25.776 20.9743 25.0421C20.9743 24.3082 20.3788 23.7133 19.6441 23.7133C18.9095 23.7133 18.314 24.3082 18.314 25.0421C18.314 25.776 18.9095 26.371 19.6441 26.371Z" fill="#041A55"/>
<path d="M13.8453 26.371C14.5799 26.371 15.1755 25.776 15.1755 25.0421C15.1755 24.3082 14.5799 23.7133 13.8453 23.7133C13.1107 23.7133 12.5151 24.3082 12.5151 25.0421C12.5151 25.776 13.1107 26.371 13.8453 26.371Z" fill="#041A55"/>
<path d="M4.28182 26.371C5.01645 26.371 5.61199 25.776 5.61199 25.0421C5.61199 24.3082 5.01645 23.7133 4.28182 23.7133C3.54719 23.7133 2.95166 24.3082 2.95166 25.0421C2.95166 25.776 3.54719 26.371 4.28182 26.371Z" fill="#041A55"/>
<path d="M24.036 27.5614C24.7706 27.5614 25.3661 26.9665 25.3661 26.2326C25.3661 25.4987 24.7706 24.9037 24.036 24.9037C23.3013 24.9037 22.7058 25.4987 22.7058 26.2326C22.7058 26.9665 23.3013 27.5614 24.036 27.5614Z" fill="#041A55"/>
<path d="M16.7276 29.9044C17.4623 29.9044 18.0578 29.3095 18.0578 28.5756C18.0578 27.8417 17.4623 27.2467 16.7276 27.2467C15.993 27.2467 15.3975 27.8417 15.3975 28.5756C15.3975 29.3095 15.993 29.9044 16.7276 29.9044Z" fill="#041A55"/>
<path d="M21.5055 32C22.2401 32 22.8356 31.4051 22.8356 30.6712C22.8356 29.9373 22.2401 29.3423 21.5055 29.3423C20.7708 29.3423 20.1753 29.9373 20.1753 30.6712C20.1753 31.4051 20.7708 32 21.5055 32Z" fill="#041A55"/>
<path d="M12.0103 32C12.745 32 13.3405 31.4051 13.3405 30.6712C13.3405 29.9373 12.745 29.3423 12.0103 29.3423C11.2757 29.3423 10.6802 29.9373 10.6802 30.6712C10.6802 31.4051 11.2757 32 12.0103 32Z" fill="#041A55"/>
<path d="M26.2303 17.2985C26.9649 17.2985 27.5605 16.7036 27.5605 15.9697C27.5605 15.2358 26.9649 14.6408 26.2303 14.6408C25.4957 14.6408 24.9001 15.2358 24.9001 15.9697C24.9001 16.7036 25.4957 17.2985 26.2303 17.2985Z" fill="#041A55"/>
<path d="M32.182 17.2985C32.9166 17.2985 33.5121 16.7036 33.5121 15.9697C33.5121 15.2358 32.9166 14.6408 32.182 14.6408C31.4473 14.6408 30.8518 15.2358 30.8518 15.9697C30.8518 16.7036 31.4473 17.2985 32.182 17.2985Z" fill="#041A55"/>
<path d="M29.2342 8.22416C29.9688 8.22416 30.5644 7.62922 30.5644 6.89533C30.5644 6.16144 29.9688 5.5665 29.2342 5.5665C28.4996 5.5665 27.9041 6.16144 27.9041 6.89533C27.9041 7.62922 28.4996 8.22416 29.2342 8.22416Z" fill="#041A55"/>
<path d="M16.7276 4.69355C17.4623 4.69355 18.0578 4.09861 18.0578 3.36472C18.0578 2.63083 17.4623 2.03589 16.7276 2.03589C15.993 2.03589 15.3975 2.63083 15.3975 3.36472C15.3975 4.09861 15.993 4.69355 16.7276 4.69355Z" fill="#041A55"/>
<path d="M11.9732 2.65766C12.7079 2.65766 13.3034 2.06272 13.3034 1.32883C13.3034 0.594938 12.7079 0 11.9732 0C11.2386 0 10.6431 0.594938 10.6431 1.32883C10.6431 2.06272 11.2386 2.65766 11.9732 2.65766Z" fill="#041A55"/>
<path d="M21.5189 2.65766C22.2535 2.65766 22.849 2.06272 22.849 1.32883C22.849 0.594938 22.2535 0 21.5189 0C20.7843 0 20.1887 0.594938 20.1887 1.32883C20.1887 2.06272 20.7843 2.65766 21.5189 2.65766Z" fill="#041A55"/>
<path d="M46.6533 16C46.6533 12.204 49.5451 9.32172 53.3298 9.32172C55.695 9.29897 57.8952 10.5283 59.1144 12.5528L56.9018 13.9432C56.2396 12.5926 54.8525 11.7481 53.3468 11.7803C50.956 11.7803 49.2055 13.6485 49.2055 16.0009C49.2036 18.2975 50.9398 20.196 53.3136 20.196C54.9218 20.2263 56.3857 19.2737 57.0091 17.7933L59.3107 19.0226C58.1893 21.2907 55.8629 22.7133 53.3307 22.6802C49.4019 22.6802 46.6543 19.6889 46.6543 16.0019" fill="black"/>
<path d="M63.9768 9.5018V22.5048H72.528V20.0652H66.5119V9.5018H63.9768Z" fill="black"/>
<path d="M77.4795 9.5018V22.5048H86.247V20.1182H79.9975V17.1611H85.0857V14.7925H79.9975V11.8713H86.247V9.5018H77.4795Z" fill="black"/>
<path d="M95.801 9.5018L90.875 22.5048H93.4613L94.3114 20.1381H99.7554L100.605 22.5048H103.194L98.2677 9.5018H95.8H95.801ZM97.0505 12.6864L98.9243 17.8596H95.1587L97.0495 12.6864H97.0505Z" fill="black"/>
<path d="M110.432 11.8183V16.1109H113.003C114.662 16.1109 115.432 15.0768 115.432 13.9195C115.432 12.6457 114.609 11.8183 113.003 11.8183H110.432ZM107.916 9.5018H113.2C116.199 9.5018 117.984 11.4249 117.984 13.9025C118.019 15.5147 117.133 17.0066 115.699 17.7487L118.271 22.5039H115.448L113.359 18.4065H110.431V22.5039H107.915V9.5018H107.916Z" fill="black"/>
<path d="M120.195 9.49612C120.352 9.49612 120.501 9.52645 120.64 9.58711C120.778 9.64777 120.9 9.73118 121.002 9.83544C121.105 9.94065 121.186 10.0639 121.245 10.2051C121.304 10.3463 121.333 10.497 121.333 10.6572C121.333 10.8174 121.304 10.9671 121.243 11.1065C121.183 11.2458 121.102 11.369 120.999 11.4752C120.896 11.5813 120.776 11.6638 120.638 11.7254C120.5 11.786 120.352 11.8164 120.194 11.8164C120.035 11.8164 119.882 11.786 119.741 11.7254C119.602 11.6647 119.479 11.5813 119.376 11.4752C119.273 11.369 119.191 11.2467 119.132 11.1065C119.073 10.9671 119.044 10.8174 119.044 10.6572C119.044 10.497 119.073 10.3473 119.132 10.2051C119.191 10.0629 119.273 9.94065 119.376 9.83544C119.479 9.73118 119.602 9.64777 119.741 9.58711C119.881 9.52645 120.032 9.49612 120.194 9.49612H120.195ZM120.195 11.5557C120.314 11.5557 120.427 11.532 120.532 11.4856C120.637 11.4391 120.728 11.3747 120.806 11.2922C120.884 11.2107 120.945 11.115 120.99 11.006C121.034 10.897 121.057 10.7814 121.057 10.6572C121.057 10.533 121.034 10.4136 120.99 10.3037C120.945 10.1937 120.884 10.0989 120.806 10.0174C120.728 9.93686 120.637 9.8724 120.532 9.82596C120.427 9.77952 120.314 9.75582 120.195 9.75582C120.075 9.75582 119.96 9.77952 119.853 9.82596C119.747 9.87335 119.655 9.93686 119.576 10.0174C119.497 10.098 119.436 10.1937 119.39 10.3037C119.346 10.4136 119.323 10.5311 119.323 10.6572C119.323 10.7833 119.346 10.897 119.39 11.006C119.435 11.115 119.497 11.2098 119.576 11.2922C119.655 11.3737 119.747 11.4382 119.853 11.4856C119.96 11.533 120.073 11.5557 120.195 11.5557ZM120.26 10.1103C120.394 10.1103 120.497 10.1406 120.569 10.2032C120.641 10.2648 120.677 10.3501 120.677 10.4572C120.677 10.5472 120.648 10.6202 120.59 10.6771C120.533 10.734 120.451 10.769 120.345 10.7833L120.683 11.1937H120.417L120.102 10.7861H120.003V11.1937H119.778V10.1103H120.26ZM120.002 10.3141V10.6013H120.254C120.313 10.6013 120.361 10.589 120.396 10.5653C120.431 10.5416 120.448 10.5055 120.448 10.4572C120.448 10.4089 120.43 10.3738 120.396 10.3492C120.362 10.3245 120.313 10.3131 120.254 10.3131H120.002V10.3141Z" fill="black"/>
</svg>
