<svg width="57" height="11" viewBox="0 0 57 11" fill="none" xmlns="http://www.w3.org/2000/svg">
<path d="M12.6143 8.59812V1.55595C12.6143 1.52699 12.6383 1.50318 12.6676 1.50318H13.8616C13.8883 1.50318 13.911 1.52313 13.9143 1.54952L14.0261 2.41249C14.0326 2.46076 14.0943 2.47556 14.1223 2.43566C14.5942 1.75738 15.4652 1.2876 16.4832 1.2876C18.0224 1.2876 19.0306 2.31274 19.0306 3.91771V8.59876C19.0306 8.62772 19.0065 8.65153 18.9773 8.65153H17.4764C17.4471 8.65153 17.4231 8.62772 17.4231 8.59876V3.99879C17.4231 3.20339 16.892 2.67698 15.9924 2.67698C14.9433 2.67698 14.2354 3.39195 14.2218 4.32249V8.59876C14.2218 8.62772 14.1977 8.65153 14.1685 8.65153H12.6676C12.6383 8.65089 12.6143 8.62707 12.6143 8.59812Z" fill="#2C1F45"/>
<path d="M19.9238 8.59835V1.55619C19.9238 1.52723 19.9479 1.50342 19.9771 1.50342H21.478C21.5073 1.50342 21.5313 1.52723 21.5313 1.55619V8.59835C21.5313 8.62731 21.5073 8.65112 21.478 8.65112H19.9771C19.9479 8.65112 19.9238 8.62731 19.9238 8.59835Z" fill="#2C1F45"/>
<path d="M22.4795 8.59835V1.55619C22.4795 1.52723 22.5035 1.50342 22.5328 1.50342H23.7269C23.7535 1.50342 23.7763 1.52272 23.7795 1.54911L23.9414 2.73835C23.9485 2.78919 24.0168 2.80078 24.0408 2.75573C24.5153 1.88246 24.9691 1.51565 26.1046 1.51565H26.3269C26.3549 1.51565 26.3776 1.53817 26.3776 1.56584L26.938 2.96938C26.9386 2.97131 26.9373 2.97324 26.9354 2.97324H26.4713C24.973 2.97324 24.0876 3.76865 24.0876 5.11749V8.59835C24.0876 8.62731 24.0636 8.65112 24.0343 8.65112H22.5334C22.5035 8.65112 22.4795 8.62731 22.4795 8.59835Z" fill="#2C1F45"/>
<path d="M30.0309 8.61894L27.0648 1.57614C27.0499 1.54139 27.0759 1.50342 27.1142 1.50342H28.7419C28.764 1.50342 28.7835 1.51693 28.7913 1.53688L30.8395 6.65295C30.857 6.69736 30.9207 6.69736 30.9383 6.65295L32.9735 1.53753C32.9813 1.51758 33.0014 1.50406 33.0229 1.50406H34.6505C34.6882 1.50406 34.7142 1.54267 34.6999 1.57678L31.7339 8.61894C31.7255 8.63889 31.706 8.65112 31.6845 8.65112H30.0803C30.0588 8.65112 30.0393 8.63825 30.0309 8.61894Z" fill="#2C1F45"/>
<path d="M34.4248 5.03681C34.4248 2.82499 35.8009 1.2876 37.7217 1.2876C38.7916 1.2876 39.6906 1.75866 40.1768 2.49486C40.2041 2.53605 40.2678 2.52125 40.2743 2.47234L40.3868 1.54952C40.39 1.52313 40.4128 1.50318 40.4394 1.50318H41.6329C41.6621 1.50318 41.6862 1.52699 41.6862 1.55595V8.59812C41.6862 8.62707 41.6621 8.65089 41.6329 8.65089H40.1456C40.1164 8.65089 40.0923 8.62707 40.0923 8.59812V7.85098C40.0923 7.79949 40.0267 7.7789 39.9961 7.82008C39.5203 8.4649 38.7435 8.85296 37.7763 8.85296C35.8275 8.85296 34.4248 7.28853 34.4248 5.03681ZM40.0917 5.0233C40.0917 3.60689 39.2746 2.62293 38.1026 2.62293C36.904 2.62293 36.0726 3.62104 36.0726 5.05033C36.0726 6.49312 36.8897 7.50476 38.0753 7.50476C39.2603 7.50476 40.0917 6.47961 40.0917 5.0233Z" fill="#2C1F45"/>
<path d="M42.4951 8.59812V1.55595C42.4951 1.52699 42.5192 1.50318 42.5484 1.50318H43.7425C43.7692 1.50318 43.7919 1.52313 43.7952 1.54952L43.907 2.41249C43.9135 2.46076 43.9752 2.47556 44.0032 2.43566C44.4751 1.75738 45.3461 1.2876 46.364 1.2876C47.9033 1.2876 48.9114 2.31274 48.9114 3.91771V8.59876C48.9114 8.62772 48.8874 8.65153 48.8581 8.65153H47.3572C47.328 8.65153 47.3039 8.62772 47.3039 8.59876V3.99879C47.3039 3.20339 46.7729 2.67698 45.8733 2.67698C44.8241 2.67698 44.1163 3.39195 44.1026 4.32249V8.59876C44.1026 8.62772 44.0786 8.65153 44.0493 8.65153H42.5484C42.5192 8.65089 42.4951 8.62707 42.4951 8.59812Z" fill="#2C1F45"/>
<path d="M49.4844 5.03681C49.4844 2.82499 50.8605 1.2876 52.7813 1.2876C53.8512 1.2876 54.7502 1.75866 55.2364 2.49486C55.2637 2.53605 55.3274 2.52125 55.3339 2.47234L55.4463 1.54952C55.4496 1.52313 55.4723 1.50318 55.499 1.50318H56.6924C56.7217 1.50318 56.7457 1.52699 56.7457 1.55595V8.59812C56.7457 8.62707 56.7217 8.65089 56.6924 8.65089H55.2052C55.1759 8.65089 55.1519 8.62707 55.1519 8.59812V7.85098C55.1519 7.79949 55.0862 7.7789 55.0557 7.82008C54.5799 8.4649 53.8031 8.85296 52.8359 8.85296C50.8878 8.85296 49.4844 7.28853 49.4844 5.03681ZM55.1512 5.0233C55.1512 3.60689 54.3342 2.62293 53.1622 2.62293C51.9635 2.62293 51.1322 3.62104 51.1322 5.05033C51.1322 6.49312 51.9492 7.50476 53.1349 7.50476C54.3205 7.50476 55.1512 6.47961 55.1512 5.0233Z" fill="#2C1F45"/>
<path d="M4.61773 6.36656C5.34075 6.36656 5.92687 5.78629 5.92687 5.07049C5.92687 4.35469 5.34075 3.77441 4.61773 3.77441C3.89471 3.77441 3.30859 4.35469 3.30859 5.07049C3.30859 5.78629 3.89471 6.36656 4.61773 6.36656Z" fill="#2C1F45"/>
<path d="M6.43798 6.78516C4.89809 7.11336 3.91851 8.616 4.25002 10.1405C5.79056 9.81168 6.77014 8.30968 6.43798 6.78516Z" fill="#2C1F45"/>
<path d="M5.20703 2.63989C6.25746 3.80211 8.06126 3.90122 9.23519 2.86127C8.18411 1.69841 6.38096 1.5993 5.20703 2.63989Z" fill="#2C1F45"/>
<path d="M0 7.27949C1.17393 6.23954 2.97773 6.33865 4.02816 7.50151C2.85358 8.54145 1.05043 8.4417 0 7.27949Z" fill="#2C1F45"/>
<path d="M4.98452 0C5.31603 1.52453 4.33581 3.02717 2.79592 3.35473C2.46441 1.8302 3.44398 0.328201 4.98452 0Z" fill="#2C1F45"/>
<path d="M0.371952 2.22266C1.86764 2.71303 2.67821 4.31092 2.1829 5.79168C0.68786 5.30131 -0.123362 3.70342 0.371952 2.22266Z" fill="#2C1F45"/>
<path d="M7.03284 4.36768C8.52853 4.85805 9.3391 6.45593 8.84378 7.9367C7.34874 7.44568 6.53817 5.84844 7.03284 4.36768Z" fill="#2C1F45"/>
</svg>
