<svg width="375" height="45" viewBox="0 0 375 45" fill="none" xmlns="http://www.w3.org/2000/svg">
<rect width="375" height="45" fill="white"/>
<path opacity="0.35" fill-rule="evenodd" clip-rule="evenodd" d="M338.751 18.4746C337.742 18.4746 337.344 18.5473 336.932 18.7552C336.585 18.9307 336.315 19.1854 336.129 19.5135C335.909 19.9022 335.832 20.2787 335.832 21.231V25.4775C335.832 26.4297 335.909 26.8063 336.129 27.1949C336.315 27.5231 336.585 27.7778 336.932 27.9532C337.344 28.1611 337.742 28.2338 338.751 28.2338H353.914C354.922 28.2338 355.32 28.1611 355.732 27.9532C356.079 27.7778 356.349 27.5231 356.535 27.1949C356.755 26.8063 356.832 26.4297 356.832 25.4775V21.231C356.832 20.2787 356.755 19.9022 356.535 19.5135C356.349 19.1854 356.079 18.9307 355.732 18.7552C355.32 18.5473 354.922 18.4746 353.914 18.4746H338.751Z" fill="black" stroke="#002938"/>
<path opacity="0.4" d="M358.332 21.4648V25.2426C359.137 24.9226 359.66 24.1783 359.66 23.3537C359.66 22.5291 359.137 21.7848 358.332 21.4648Z" fill="black"/>
<path d="M339.041 19.8916H353.623C354.217 19.8916 354.433 19.95 354.65 20.0598C354.867 20.1695 355.038 20.3306 355.154 20.5358C355.27 20.741 355.332 20.9446 355.332 21.5059V25.2032C355.332 25.7645 355.27 25.9681 355.154 26.1733C355.038 26.3785 354.867 26.5395 354.65 26.6493C354.433 26.759 354.217 26.8175 353.623 26.8175H339.041C338.447 26.8175 338.231 26.759 338.014 26.6493C337.797 26.5395 337.626 26.3785 337.51 26.1733C337.394 25.9681 337.332 25.7645 337.332 25.2032V21.5059C337.332 20.9446 337.394 20.741 337.51 20.5358C337.626 20.3306 337.797 20.1695 338.014 20.0598C338.231 19.95 338.447 19.8916 339.041 19.8916Z" fill="black"/>
<path d="M322.664 20.1508C324.88 20.1509 327.011 20.955 328.617 22.397C328.738 22.5083 328.931 22.5069 329.05 22.3938L330.206 21.292C330.267 21.2346 330.3 21.157 330.3 21.0761C330.299 20.9953 330.265 20.918 330.204 20.8613C325.989 17.0462 319.339 17.0462 315.124 20.8613C315.063 20.918 315.028 20.9952 315.027 21.0761C315.027 21.1569 315.06 21.2346 315.121 21.292L316.277 22.3938C316.396 22.5071 316.589 22.5085 316.71 22.397C318.316 20.9549 320.448 20.1508 322.664 20.1508ZM322.664 23.7356C323.881 23.7355 325.055 24.1629 325.958 24.9347C326.08 25.0442 326.272 25.0419 326.391 24.9293L327.546 23.8275C327.607 23.7697 327.64 23.6913 327.64 23.6098C327.639 23.5284 327.603 23.4506 327.541 23.394C324.793 20.9797 320.537 20.9797 317.789 23.394C317.727 23.4506 317.691 23.5284 317.691 23.6099C317.69 23.6914 317.724 23.7698 317.785 23.8275L318.939 24.9293C319.058 25.0419 319.25 25.0442 319.372 24.9347C320.274 24.1634 321.447 23.7361 322.664 23.7356ZM324.883 26.3652C324.945 26.308 324.979 26.2292 324.977 26.1475C324.975 26.0658 324.938 25.9884 324.874 25.9336C323.598 24.9147 321.73 24.9147 320.454 25.9336C320.39 25.9884 320.353 26.0657 320.351 26.1474C320.349 26.2291 320.383 26.3079 320.445 26.3652L322.442 28.2689C322.501 28.3248 322.581 28.3563 322.664 28.3563C322.747 28.3563 322.827 28.3248 322.886 28.2689L324.883 26.3652Z" fill="black"/>
<path d="M294 24.6136H295C295.552 24.6136 296 25.0365 296 25.5581V27.447C296 27.9686 295.552 28.3914 295 28.3914H294C293.448 28.3914 293 27.9686 293 27.447V25.5581C293 25.0365 293.448 24.6136 294 24.6136ZM298.667 22.7248H299.667C300.219 22.7248 300.667 23.1476 300.667 23.6692V27.447C300.667 27.9686 300.219 28.3914 299.667 28.3914H298.667C298.114 28.3914 297.667 27.9686 297.667 27.447V23.6692C297.667 23.1476 298.114 22.7248 298.667 22.7248ZM303.333 20.5211H304.333C304.886 20.5211 305.333 20.9439 305.333 21.4655V27.447C305.333 27.9686 304.886 28.3914 304.333 28.3914H303.333C302.781 28.3914 302.333 27.9686 302.333 27.447V21.4655C302.333 20.9439 302.781 20.5211 303.333 20.5211ZM308 18.3174H309C309.552 18.3174 310 18.7402 310 19.2618V27.447C310 27.9686 309.552 28.3914 309 28.3914H308C307.448 28.3914 307 27.9686 307 27.447V19.2618C307 18.7402 307.448 18.3174 308 18.3174Z" fill="black"/>
<path d="M27.9922 26.4658C28.0312 27.1934 28.312 27.6963 28.8345 27.9746C29.103 28.1211 29.4058 28.1943 29.7427 28.1943C30.3726 28.1943 30.9097 27.9331 31.354 27.4106C31.7983 26.8833 32.1133 25.8164 32.2988 24.21C32.0059 24.6738 31.6421 25.001 31.2075 25.1914C30.7778 25.377 30.314 25.4697 29.8159 25.4697C28.8052 25.4697 28.0044 25.1548 27.4136 24.5249C26.8276 23.895 26.5347 23.0845 26.5347 22.0933C26.5347 21.1411 26.8252 20.3037 27.4062 19.5811C27.9873 18.8584 28.8442 18.4971 29.9771 18.4971C31.5054 18.4971 32.5601 19.1855 33.1411 20.5625C33.4634 21.3193 33.6245 22.2666 33.6245 23.4043C33.6245 24.6885 33.4316 25.8262 33.0459 26.8174C32.4062 28.4678 31.3223 29.293 29.7939 29.293C28.7686 29.293 27.9897 29.0244 27.4575 28.4873C26.9253 27.9502 26.6592 27.2764 26.6592 26.4658H27.9922ZM29.9917 24.3125C30.5142 24.3125 30.9902 24.1416 31.4199 23.7998C31.8545 23.4531 32.0718 22.8501 32.0718 21.9907C32.0718 21.2192 31.8765 20.6455 31.4858 20.2695C31.1001 19.8887 30.6069 19.6982 30.0063 19.6982C29.3618 19.6982 28.8491 19.9155 28.4683 20.3501C28.0923 20.7798 27.9043 21.356 27.9043 22.0786C27.9043 22.7622 28.0703 23.3066 28.4023 23.7119C28.7344 24.1123 29.2642 24.3125 29.9917 24.3125ZM36.0122 21.2583H37.543V22.855H36.0122V21.2583ZM36.0122 27.4033H37.543V29H36.0122V27.4033ZM43.4829 25.2866V20.5332L40.1211 25.2866H43.4829ZM43.5049 29V26.4365H38.9053V25.1475L43.71 18.4824H44.8232V25.2866H46.3687V26.4365H44.8232V29H43.5049ZM48.3096 21.5732V20.5625C49.2617 20.4697 49.9258 20.3159 50.3018 20.1011C50.6777 19.8813 50.9585 19.3662 51.144 18.5557H52.1841V29H50.7778V21.5732H48.3096Z" fill="black"/>
</svg>
